# xmcd
#
# Track frame offsets:
#	151
#	33003
#	56647
#	80631
#	105713
#	131266
#	154792
#	175743
#	206860
#
# Disc length: 3113 seconds
#
# Revision: 0
# Processed by: cddbd v1.5.2PL0 Copyright (c) Steve Scherf et al.
# Submitted via: FairStars CD Ripper 1.90
#
DISCID=700c2709
DTITLE=Guido Desimpelaere - My Unique Country
DYEAR=9999
DGENRE=Country
TTITLE0=Seasand
TTITLE1=Somewhere over the hills
TTITLE2=Cristals on the mountains
TTITLE3=The acacia at the end of the road
TTITLE4=Dreaming on a quiet lake
TTITLE5=A canoe on the river
TTITLE6=Sunrise over the valley
TTITLE7=Summer at thw farm
TTITLE8=The Lowlands
EXTD=
EXTT0=
EXTT1=
EXTT2=
EXTT3=
EXTT4=
EXTT5=
EXTT6=
EXTT7=
EXTT8=
PLAYORDER=
